<svg xmlns:xlink="http://www.w3.org/1999/xlink" width="80" height="80" viewBox="0 0 80 80" fill="none" xmlns="http://www.w3.org/2000/svg">
<rect width="80" height="80" fill="#F5F5F5"/>
<g id="Главная">
<rect width="1366" height="2369" transform="translate(-99 -1694)" fill="white"/>
<g id="_Блок Новости">
<g id="_Направления">
<g id="_Card button">
<g id="ic_cause">
<path id="Vector" d="M80 0H0V80H80V0Z" fill="white"/>
<g id="Group 277133241">
<g id="Union">
<path d="M41.1499 8.44947L44.1611 14.6904C44.2374 14.8483 44.3621 14.9746 44.512 15.0535C44.5896 15.0956 44.6739 15.1219 44.7617 15.1377L51.4963 16.1375C51.8083 16.1849 52.0309 16.3954 52.1278 16.6532C52.1576 16.7321 52.1754 16.8163 52.1802 16.9005C52.1928 17.1215 52.1181 17.3531 51.9381 17.532L47.0652 22.3837L46.9951 22.4627L46.9421 22.5416C46.8413 22.71 46.8015 22.9099 46.8335 23.1099L47.9832 29.9665C48.0947 30.6296 47.4084 31.14 46.825 30.8243L40.8024 27.588C40.5708 27.4617 40.292 27.4617 40.0603 27.588L34.0379 30.8243C33.7893 30.9558 33.5239 30.94 33.3088 30.8295C33.0152 30.6822 32.8152 30.3507 32.8797 29.9665L34.0292 23.1099C34.0722 22.8468 33.9864 22.5732 33.7975 22.3837L28.9246 17.532C28.4486 17.0584 28.7102 16.2375 29.3664 16.1375L36.101 15.1377C36.2582 15.1114 36.4014 15.043 36.5158 14.9377C36.5568 14.9009 36.5943 14.8588 36.6271 14.8114L36.7016 14.6904L39.713 8.44947C40.009 7.84432 40.8583 7.84432 41.1499 8.44947Z" fill="#210093"/>
<path d="M28.1529 70.88C28.1281 70.7327 28.1173 70.5801 28.1183 70.4117C28.1289 68.7646 28.1279 67.1176 28.1268 65.4705V62.8131L28.1353 60.524C28.1374 60.2136 28.0935 59.9452 27.9941 59.7084C27.9569 59.6189 27.912 59.5347 27.8589 59.4558L27.7711 59.3295L27.6577 59.198L27.5547 59.0927L27.4233 58.9822C23.0866 55.4618 20.3498 50.9206 19.5734 45.3005C19.2346 42.8431 19.2517 40.312 19.3204 37.823C19.3804 35.7076 21.212 34.15 23.1981 34.2236C25.2786 34.2973 26.8829 35.9444 26.9429 38.1229C26.9553 38.586 26.9593 39.0491 26.9598 39.5121V39.7963L26.9577 40.4909C26.9551 41.1539 26.9525 41.8222 26.9643 42.4853C27.0888 48.9946 32.0603 54.7146 38.3574 55.6092C45.7183 56.6563 52.29 51.852 53.5939 44.3691C53.7762 43.3325 53.7815 42.259 53.7868 41.1908C53.7892 40.7224 53.7916 40.2541 53.8085 39.791C53.8185 39.5279 53.8175 39.2648 53.8166 39.0017C53.8149 38.586 53.8135 38.1703 53.8557 37.7546C54.0616 35.7234 55.6829 34.2289 57.6391 34.2184C59.6036 34.2079 61.3623 35.7339 61.4524 37.7809C61.6154 41.5854 61.5768 45.3742 60.2642 49.0314C58.8315 53.0254 56.5324 56.3616 53.2551 58.977C52.9375 59.2295 52.7166 59.4979 52.5784 59.8031C52.4497 60.0925 52.3929 60.4188 52.3971 60.8029L52.4106 62.8394L52.4138 68.3384L52.4272 70.2801C52.4357 71.0326 52.2428 71.5957 51.6165 71.9851C44.0883 71.9956 36.5515 71.9956 29.0191 71.9956C28.6212 71.8167 28.3775 71.5536 28.2455 71.2168C28.204 71.1116 28.1736 71.001 28.1529 70.88Z" fill="#210093"/>
<path d="M33.7768 42.8589C34.0958 46.2267 36.8673 48.863 40.2534 48.8788C43.8653 48.8894 46.808 45.9162 46.8293 42.2327C46.8551 38.5386 43.891 35.4866 40.2791 35.4813C36.6845 35.476 33.7633 38.4755 33.7462 42.1748C33.7451 42.4063 33.7555 42.6326 33.7768 42.8589Z" fill="#210093"/>
</g>
<path id="Vector_2" d="M38.4795 68.1558H34.6395V71.9958H38.4795V68.1558Z" fill="#210093"/>
<path id="Vector_3" d="M47.4405 60.4756H43.6005V64.3156H47.4405V60.4756Z" fill="#210093"/>
<path id="Vector_4" d="M21.84 27.1956H18V31.0356H21.84V27.1956Z" fill="#210093"/>
<path id="Vector_5" d="M25.6805 23.3555H21.8405V27.1955H25.6805V23.3555Z" fill="#210093"/>
<path id="Vector_6" d="M58.9594 23.3555H55.1194V27.1955H58.9594V23.3555Z" fill="#210093"/>
<path id="Vector_7" d="M51.2797 7.99561H47.4397V11.8356H51.2797V7.99561Z" fill="#210093"/>
<path id="Vector_8" d="M34.6402 68.1558H30.8002V71.9958H34.6402V68.1558Z" fill="#4A80B6"/>
<path id="Vector_9" d="M41.0398 20.7957H37.1998V24.6357H41.0398V20.7957Z" fill="#4A80B6"/>
<path id="Vector_10" d="M34.6402 64.3157H30.8002V68.1557H34.6402V64.3157Z" fill="white"/>
<path id="Vector_11" d="M42.3199 68.1558H38.4799V71.9958H42.3199V68.1558Z" fill="white"/>
<path id="Vector_12" d="M44.8802 16.9558H41.0402V20.7958H44.8802V16.9558Z" fill="white"/>
</g>
</g>
</g>
<rect x="-22.5" y="-78.5" width="589" height="229" stroke="#A4BBE7" stroke-width="3"/>
</g>
</g>
</g>
</svg>