<svg xmlns:xlink="http://www.w3.org/1999/xlink" width="120" height="120" viewBox="0 0 120 120" fill="none" xmlns="http://www.w3.org/2000/svg">
<g clip-path="url(#clip0_5366_193019)" fill="none">
<path d="M119.996 0H0V120H119.996V0Z" fill="#210093"></path>
<path d="M94.0135 75.6156H97.2432V65.9224H94.0135V59.4631H97.2432V43.3105C95.7584 43.3105 94.2882 43.6031 92.9164 44.1714C91.5447 44.7397 90.2984 45.5728 89.2487 46.6229C88.199 47.673 87.3664 48.9196 86.7986 50.2915C86.2308 51.6634 85.9388 53.1338 85.9394 54.6186C85.9394 51.6195 84.748 48.7433 82.6273 46.6226C80.5067 44.5019 77.6304 43.3105 74.6313 43.3105V72.3817H81.0949V75.6156H74.6313V82.0749H77.861V78.8453H84.3246V82.0749H87.5542V88.5342H90.7839V78.8453H87.5542V75.6156H90.7839V78.8453H94.0135V82.0749H97.2432V78.8453H94.0135V75.6156ZM81.0949 65.9224H77.861V62.6927H81.0949V65.9224ZM87.5542 69.152H94.0135V72.3817H87.5542V69.152Z" fill="#FFFFFF"></path>
<path d="M26.1781 59.4631H22.9485V65.9224H26.1781V59.4631Z" fill="#FFFFFF"></path>
<path d="M45.5602 59.4631H42.3306V62.6928H45.5602V59.4631Z" fill="#FFFFFF"></path>
<path d="M32.6374 62.6927H29.4077V65.9224H32.6374V62.6927Z" fill="#FFFFFF"></path>
<path d="M52.0197 17.4691H48.79V23.9284H52.0197V17.4691Z" fill="#FFFFFF"></path>
<path d="M61.7087 17.4691H58.479V20.6988H61.7087V17.4691Z" fill="#FFFFFF"></path>
<path d="M68.172 20.6987H64.9424V23.9284H68.172V20.6987Z" fill="#FFFFFF"></path>
<path d="M68.1722 82.075H61.7129V85.3046H68.1722V82.075Z" fill="#FFFFFF"></path>
<path d="M68.1722 51.3848L60.098 23.9285L52.0026 51.3848L48.7729 49.77V72.3818H52.0026V75.6157H55.2323V78.8454H52.0026V75.6157H48.7729V78.8454H52.0026V85.3047H58.4619V82.075H55.2323V78.8454H58.4619V82.075H61.6958V78.8454H68.1722V82.075H71.4018V49.77L68.1722 51.3848ZM68.1722 69.1522H64.9425V72.3818H55.2493V69.1522H52.0196V59.4632H55.2493V56.2421H64.9425V59.4717H68.1722V69.1522Z" fill="#FFFFFF"></path>
<path d="M61.7087 85.3047H58.479V88.5343H61.7087V85.3047Z" fill="#FFFFFF"></path>
<path d="M58.4789 88.5343H55.2493V91.764H58.4789V88.5343Z" fill="#FFFFFF"></path>
<path d="M77.861 85.3047H74.6313V88.5343H77.861V85.3047Z" fill="#FFFFFF"></path>
<path d="M68.1722 88.5343H61.7129V91.764H68.1722V88.5343H71.4019V85.3047H68.1722V88.5343Z" fill="#FFFFFF"></path>
<path d="M97.2433 85.3047H94.0137V91.764H97.2433V85.3047Z" fill="#FFFFFF"></path>
<path d="M77.8611 85.3046H81.0907V91.7639H84.3247V82.075H77.8611V85.3046Z" fill="#FFFFFF"></path>
<path d="M22.9485 40.081H45.5603V17.4691H22.9485V40.081ZM26.1781 20.6988H42.3307V36.8513H26.1781V20.6988Z" fill="#FFFFFF"></path>
<path d="M74.6313 40.081H97.2432V17.4691H74.6313V40.081ZM94.0135 36.8513H77.861V20.6988H94.0135V36.8513Z" fill="#FFFFFF"></path>
<path d="M34.2523 54.6186C34.2528 53.1338 33.9609 51.6634 33.3931 50.2915C32.8252 48.9196 31.9927 47.673 30.943 46.6229C29.8933 45.5728 28.647 44.7397 27.2752 44.1714C25.9035 43.6031 24.4333 43.3105 22.9485 43.3105V56.2419H26.1781V59.4716H32.6332V62.7013H39.0968V59.4716H42.3307V56.2419H45.5603V43.3105C42.5612 43.3105 39.685 44.5019 37.5643 46.6226C35.4437 48.7433 34.2523 51.6195 34.2523 54.6186Z" fill="#FFFFFF"></path>
<path d="M26.1781 56.2335H22.9485V59.4632H26.1781V56.2335Z" fill="#D21905"></path>
<path d="M42.3307 59.4631H39.1011V62.6928H42.3307V59.4631Z" fill="#D21905"></path>
<path d="M29.4076 62.6927H26.178V65.9224H29.4076V62.6927Z" fill="#D21905"></path>
<path d="M39.0966 62.6927H35.8669V65.9224H39.0966V62.6927Z" fill="#D21905"></path>
<path d="M61.7128 23.9284V20.6988H58.4789V17.4691H55.2493V20.6988H58.4789V23.9284H61.7128Z" fill="#D21905"></path>
<path d="M71.4018 17.4691H68.1721V20.6988H71.4018V17.4691Z" fill="#D21905"></path>
<path d="M55.2492 75.6157H52.0195V78.8454H55.2492V75.6157Z" fill="#D21905"></path>
<path d="M52.0197 85.3047H48.79V88.5343H52.0197V85.3047Z" fill="#D21905"></path>
<path d="M61.7129 88.5343H58.479V91.764H61.7129V88.5343H64.9426V85.3047H61.7129V88.5343Z" fill="#D21905"></path>
<path d="M71.4018 88.5343H68.1721V91.764H71.4018V88.5343Z" fill="#D21905"></path>
<path d="M97.2433 62.6927H94.0137V65.9224H97.2433V62.6927Z" fill="#D21905"></path>
<path d="M84.3246 65.9225H81.095V69.1521H84.3246V65.9225Z" fill="#D21905"></path>
<path d="M94.0136 78.8453H90.7839V82.075H94.0136V78.8453Z" fill="#D21905"></path>
<path d="M81.0907 85.3047H77.8611V88.5343H81.0907V85.3047Z" fill="#D21905"></path>
<path d="M90.784 88.5343H84.3247V91.764H90.784V88.5343Z" fill="#D21905"></path>
<path d="M45.5602 56.2335H42.3306V59.4632H45.5602V56.2335Z" fill="#0069C7"></path>
<path d="M29.4076 59.4631H26.178V62.6928H29.4076V59.4631Z" fill="#0069C7"></path>
<path d="M35.8671 62.6927H32.6375V65.9224H35.8671V62.6927Z" fill="#0069C7"></path>
<path d="M45.5602 62.6927H42.3306V65.9224H45.5602V62.6927Z" fill="#0069C7"></path>
<path d="M55.2492 20.6987H52.0195V23.9284H55.2492V20.6987Z" fill="#0069C7"></path>
<path d="M64.9425 17.4691H61.7129V20.6988H64.9425V17.4691Z" fill="#0069C7"></path>
<path d="M71.4018 20.6987H68.1721V23.9284H71.4018V20.6987Z" fill="#0069C7"></path>
<path d="M52.0197 72.3817H48.79V75.6114H52.0197V72.3817Z" fill="#0069C7"></path>
<path d="M52.0197 78.8453H48.79V82.075H52.0197V78.8453Z" fill="#0069C7"></path>
<path d="M58.4789 78.8453H55.2493V82.075H58.4789V78.8453Z" fill="#0069C7"></path>
<path d="M64.9425 78.8453H61.7129V82.075H64.9425V78.8453Z" fill="#0069C7"></path>
<path d="M71.4018 82.075H68.1721V85.3046H71.4018V82.075Z" fill="#0069C7"></path>
<path d="M58.4789 85.3047H55.2493V88.5343H58.4789V85.3047Z" fill="#0069C7"></path>
<path d="M52.0197 88.5343H48.79V91.764H52.0197V88.5343Z" fill="#0069C7"></path>
<path d="M97.2433 59.4631H94.0137V62.6928H97.2433V59.4631Z" fill="#0069C7"></path>
<path d="M87.5544 62.6927H84.3247V65.9224H87.5544V62.6927Z" fill="#0069C7"></path>
<path d="M77.861 72.3817H74.6313V75.6114H77.861V72.3817Z" fill="#0069C7"></path>
<path d="M97.2433 75.6157H94.0137V78.8454H97.2433V75.6157Z" fill="#0069C7"></path>
<path d="M84.3246 78.8453H81.095V82.075H84.3246V78.8453Z" fill="#0069C7"></path>
<path d="M97.2432 82.075H90.7839V85.3046H97.2432V82.075Z" fill="#0069C7"></path>
<path d="M77.861 88.5343H74.6313V91.764H77.861V88.5343Z" fill="#0069C7"></path>
<path d="M94.0136 88.5343H90.7839V91.764H94.0136V88.5343Z" fill="#0069C7"></path>
<path d="M39.0967 23.9285H29.4077V33.6174H39.0967V23.9285Z" fill="#0069C7"></path>
<path d="M90.7839 23.9285H81.095V33.6174H90.7839V23.9285Z" fill="#0069C7"></path>
<path d="M22.9485 98.2275H26.11C26.4728 98.2189 26.8345 98.2722 27.1794 98.3851C27.4607 98.4825 27.7168 98.6411 27.9293 98.8495C28.1235 99.0447 28.2694 99.2825 28.3554 99.544C28.5541 100.127 28.5541 100.759 28.3554 101.342C28.2694 101.604 28.1235 101.841 27.9293 102.037C27.7151 102.239 27.4591 102.392 27.1794 102.484C26.8345 102.597 26.4728 102.65 26.11 102.642H23.9498V105.765H22.9485V98.2275ZM25.9907 101.747C26.4029 101.784 26.8138 101.664 27.1411 101.41C27.3696 101.133 27.4947 100.785 27.4947 100.426C27.4947 100.067 27.3696 99.7188 27.1411 99.4418C26.8138 99.1885 26.4029 99.0682 25.9907 99.1052H23.9498V101.747H25.9907Z" fill="#FFFFFF"></path>
<path d="M30.0597 104.738C30.1061 104.775 30.156 104.808 30.2088 104.836C30.2738 104.868 30.3406 104.897 30.4091 104.921C30.481 104.948 30.5552 104.967 30.6306 104.981C30.7033 104.998 30.7776 105.006 30.8522 105.006C30.9871 105.01 31.1214 104.988 31.2484 104.942C31.3546 104.904 31.4528 104.846 31.5382 104.772C31.6159 104.704 31.6821 104.623 31.7342 104.533C31.784 104.442 31.8253 104.347 31.8577 104.248L28.7729 98.2275H29.9404L32.4287 103.208L34.3119 98.2275H35.4496L33.0848 103.847C32.9187 104.222 32.7695 104.546 32.6247 104.81C32.5039 105.046 32.3488 105.263 32.1645 105.454C32.0072 105.617 31.8149 105.742 31.6021 105.82C31.358 105.903 31.1013 105.942 30.8437 105.935C30.6911 105.937 30.539 105.917 30.392 105.876C30.2706 105.846 30.1562 105.792 30.0554 105.718L30.0597 104.738Z" fill="#FFFFFF"></path>
<path d="M36.5148 101.977C36.5092 102.41 36.5695 102.841 36.6937 103.255C36.7966 103.609 36.9674 103.939 37.1965 104.227C37.4072 104.49 37.6754 104.701 37.9805 104.844C38.2964 104.992 38.6416 105.066 38.9903 105.062C39.2835 105.064 39.574 105.005 39.8424 104.887C40.088 104.778 40.3106 104.623 40.4986 104.431C40.6821 104.243 40.8333 104.025 40.946 103.788C41.0551 103.557 41.1311 103.311 41.1718 103.059H42.1433C42.1206 103.287 42.0734 103.511 42.0027 103.728C41.9272 103.958 41.8272 104.18 41.7044 104.389C41.5773 104.606 41.4273 104.808 41.257 104.994C41.0795 105.184 40.8775 105.35 40.6563 105.488C40.4179 105.629 40.1632 105.741 39.8978 105.82C39.5996 105.903 39.2912 105.943 38.9818 105.939C38.7345 105.938 38.4879 105.916 38.2447 105.871C37.9863 105.817 37.7348 105.734 37.4948 105.624C37.2283 105.508 36.9789 105.356 36.7534 105.172C36.505 104.972 36.2931 104.73 36.1271 104.457C35.9342 104.142 35.7906 103.8 35.701 103.443C35.5834 102.998 35.5275 102.539 35.5348 102.079C35.5309 101.621 35.5795 101.163 35.6797 100.716C35.7645 100.351 35.8993 99.9997 36.0802 99.6719C36.2274 99.3915 36.4171 99.1357 36.6426 98.9134C36.8643 98.7166 37.1124 98.5517 37.3797 98.4235C37.6338 98.2927 37.9048 98.198 38.185 98.1422C38.465 98.082 38.7507 98.052 39.0372 98.0528C39.3514 98.0489 39.6649 98.0847 39.9703 98.1593C40.234 98.2225 40.4887 98.3184 40.7287 98.4448C40.9413 98.5603 41.1376 98.7036 41.3124 98.8708C41.4759 99.0222 41.6191 99.1941 41.7385 99.3821C41.85 99.5537 41.9401 99.7383 42.0069 99.9318C42.0683 100.108 42.107 100.291 42.122 100.477H41.1164C41.058 100.247 40.9615 100.028 40.8309 99.8295C40.7086 99.6421 40.5543 99.4777 40.375 99.3438C40.1908 99.2114 39.9865 99.1092 39.77 99.0413C39.5363 98.9718 39.2937 98.9374 39.0499 98.939C38.6907 98.9345 38.3348 99.0071 38.0061 99.152C37.6963 99.2938 37.4226 99.5035 37.205 99.7656C36.9733 100.052 36.7996 100.38 36.6937 100.733C36.568 101.147 36.5076 101.578 36.5148 102.011" fill="#FFFFFF"></path>
<path d="M43.8857 101.977C43.8801 102.41 43.9404 102.841 44.0647 103.255C44.1707 103.608 44.3428 103.938 44.5717 104.227C44.7824 104.49 45.0506 104.701 45.3557 104.844C45.6715 104.992 46.0168 105.066 46.3655 105.062C46.6587 105.064 46.9491 105.005 47.2176 104.887C47.4631 104.778 47.6858 104.623 47.8738 104.431C48.0497 104.241 48.1936 104.024 48.2999 103.788C48.409 103.557 48.485 103.311 48.5257 103.059H49.4971C49.4744 103.287 49.4273 103.511 49.3565 103.728C49.281 103.958 49.181 104.18 49.0583 104.389C48.9379 104.605 48.7951 104.807 48.6322 104.994C48.4546 105.184 48.2526 105.35 48.0314 105.488C47.7931 105.629 47.5384 105.741 47.273 105.82C46.9747 105.903 46.6664 105.943 46.3569 105.939C46.1097 105.938 45.8631 105.916 45.6198 105.871C45.3529 105.82 45.0927 105.739 44.8444 105.628C44.5779 105.512 44.3285 105.36 44.103 105.177C43.8546 104.976 43.6427 104.734 43.4767 104.461C43.2838 104.147 43.1402 103.805 43.0506 103.447C42.933 103.002 42.8771 102.543 42.8844 102.083C42.8805 101.625 42.9291 101.167 43.0293 100.72C43.1141 100.355 43.2489 100.004 43.4298 99.6761C43.586 99.3937 43.7859 99.1377 44.0221 98.9177C44.2375 98.7217 44.4782 98.5554 44.7379 98.4235C44.9934 98.2927 45.2658 98.198 45.5474 98.1422C45.8274 98.082 46.1131 98.052 46.3996 98.0528C46.7138 98.0489 47.0273 98.0847 47.3327 98.1593C47.5964 98.2225 47.8511 98.3184 48.0911 98.4448C48.3037 98.5603 48.5 98.7036 48.6748 98.8708C48.8383 99.0222 48.9815 99.1941 49.1009 99.3821C49.2124 99.5537 49.3025 99.7383 49.3693 99.9318C49.4307 100.108 49.4694 100.291 49.4843 100.477H48.5001C48.4417 100.247 48.3452 100.028 48.2146 99.8295C48.0923 99.6421 47.938 99.4777 47.7587 99.3438C47.5745 99.2114 47.3702 99.1092 47.1537 99.0413C46.92 98.9718 46.6774 98.9374 46.4336 98.939C46.0744 98.9345 45.7185 99.0071 45.3898 99.152C45.08 99.2938 44.8063 99.5035 44.5887 99.7656C44.3572 100.052 44.1822 100.381 44.0732 100.733C43.9474 101.147 43.8871 101.578 43.8942 102.011" fill="#FFFFFF"></path>
<path d="M50.5964 98.2275H51.5977V101.888L55.2662 98.2275H56.668L53.5364 101.261L56.7532 105.748H55.4665L52.8163 101.956L51.5977 103.127V105.748H50.5964V98.2275Z" fill="#FFFFFF"></path>
<path d="M57.3755 98.2275H58.3768V104.308H58.3981L62.2242 98.2275H63.3874V105.748H62.3776V99.6293H62.3563L58.5344 105.748H57.3755V98.2275Z" fill="#FFFFFF"></path>
<path d="M64.5206 98.2275H65.5262V104.308H65.5475L69.3821 98.2275H70.5411V105.748H69.5355V99.6293H69.5142L65.6795 105.748H64.5164L64.5206 98.2275ZM66.5274 96.2888C66.5398 96.4043 66.5757 96.516 66.6329 96.6171C66.69 96.7183 66.7672 96.8066 66.8598 96.8768C67.0593 96.9989 67.2908 97.0583 67.5245 97.0472C67.7633 97.0599 67.9998 96.9941 68.1977 96.8598C68.3756 96.7181 68.4929 96.5139 68.5257 96.2888H69.4503C69.4525 96.4961 69.4043 96.7008 69.3097 96.8853C69.2139 97.0653 69.0784 97.2212 68.9135 97.3412C68.7306 97.4729 68.5257 97.571 68.3084 97.631C68.0525 97.6978 67.7889 97.7308 67.5245 97.729C67.2519 97.734 66.9802 97.6966 66.7192 97.6182C66.4995 97.5549 66.2931 97.4524 66.1099 97.3157C65.9522 97.1944 65.8228 97.0403 65.7307 96.864C65.6489 96.6851 65.6095 96.4897 65.6156 96.2931L66.5274 96.2888Z" fill="#FFFFFF"></path>
<path d="M74.4141 107.371V104.879H75.0915C75.164 104.717 75.2321 104.551 75.2918 104.38C75.3605 104.193 75.4188 104.003 75.4665 103.809C75.5176 103.596 75.5687 103.349 75.6113 103.072C75.6539 102.795 75.7008 102.471 75.7434 102.092C75.786 101.713 75.8286 101.3 75.8542 100.912C75.8798 100.524 75.9053 100.162 75.9181 99.8254C75.9309 99.4888 75.9437 99.182 75.9522 98.9093C75.9607 98.6366 75.9522 98.4108 75.9522 98.2404H80.6774V104.879H81.5295V107.371H80.5879V105.761H75.3557V107.371H74.4141ZM76.9066 99.1181C76.9066 99.6081 76.8853 100.094 76.847 100.575C76.8086 101.057 76.7617 101.551 76.7064 102.041C76.668 102.429 76.6297 102.761 76.5913 103.029C76.553 103.298 76.5104 103.541 76.4678 103.754C76.4296 103.948 76.3812 104.14 76.3229 104.329C76.2718 104.508 76.2121 104.691 76.1439 104.879H79.6761V99.1053L76.9066 99.1181Z" fill="#FFFFFF"></path>
<path d="M89.1051 101.985C89.1042 102.312 89.0713 102.637 89.0071 102.957C88.9413 103.274 88.8413 103.582 88.7089 103.877C88.5767 104.168 88.4092 104.441 88.2104 104.691C88.0086 104.944 87.7702 105.165 87.5031 105.347C87.2169 105.533 86.9055 105.676 86.5785 105.773C85.8324 105.978 85.0451 105.978 84.299 105.773C83.9716 105.677 83.6601 105.534 83.3744 105.347C83.1082 105.164 82.8699 104.943 82.6671 104.691C82.4669 104.441 82.298 104.168 82.1643 103.877C82.0319 103.582 81.9319 103.274 81.8661 102.957C81.8033 102.637 81.7719 102.312 81.7724 101.985C81.7655 101.441 81.849 100.9 82.0195 100.383C82.1725 99.9228 82.4175 99.4981 82.7396 99.135C83.0581 98.7831 83.4511 98.5065 83.89 98.3255C84.8864 97.9394 85.9911 97.9394 86.9875 98.3255C87.4264 98.5065 87.8194 98.7831 88.1379 99.135C88.4572 99.4994 88.7005 99.9238 88.8537 100.383C89.0256 100.9 89.1106 101.441 89.1051 101.985ZM88.0996 101.985C88.1036 101.567 88.0432 101.15 87.9206 100.75C87.8117 100.396 87.6352 100.066 87.4008 99.7784C87.1694 99.504 86.8778 99.2867 86.5487 99.1435C86.1909 98.9945 85.8072 98.9177 85.4196 98.9177C85.032 98.9177 84.6482 98.9945 84.2905 99.1435C83.962 99.2879 83.6706 99.505 83.4383 99.7784C83.204 100.066 83.0275 100.396 82.9185 100.75C82.7959 101.15 82.7356 101.567 82.7396 101.985C82.7349 102.409 82.7908 102.831 82.9057 103.238C83.0015 103.591 83.1698 103.921 83.4 104.205C83.629 104.481 83.9214 104.697 84.2521 104.836C85.0068 105.131 85.8451 105.131 86.5998 104.836C86.9228 104.695 87.2076 104.478 87.4306 104.205C87.6593 103.92 87.8274 103.591 87.9249 103.238C88.0362 102.83 88.0907 102.408 88.0868 101.985" fill="#FFFFFF"></path>
<path d="M90.0811 98.2275H91.5255L93.6516 104.555H93.6729L95.8033 98.2275H97.2434V105.748H96.3018V99.4163H96.2805L94.1629 105.748H93.1616L91.044 99.4163H91.0227V105.748H90.0811V98.2275Z" fill="#FFFFFF"></path>
<path d="M64.8999 59.4631H55.2109V69.1521H64.8999V59.4631Z" fill="#0069C7"></path>
<path d="M27.3073 87.0771H23.937V90.4474H27.3073V87.0771Z" fill="#0069C7"></path>
<path d="M27.3073 70.1108H23.937V73.4811H27.3073V70.1108Z" fill="#0069C7"></path>
<path d="M44.3588 70.098H40.9885V73.4683H44.3588V70.098Z" fill="#0069C7"></path>
<path d="M45.948 68.5172H39.3779V75.0745H45.948V68.5172ZM44.9893 74.1372H40.3323V69.4503H44.9893V74.1372Z" fill="#FFFFFF"></path>
<path d="M44.0649 70.4176H41.2783V73.17H44.0649V70.4176Z" fill="#0069C7"></path>
<path d="M28.8964 68.5172H22.3306V75.0745H28.8964V68.5172ZM27.942 74.1372H23.2807V69.4503H27.942V74.1372Z" fill="#FFFFFF"></path>
<path d="M27.0175 70.4176H24.231V73.17H27.0175V70.4176Z" fill="#0069C7"></path>
<path d="M22.3306 92.092H28.8964V85.5347H22.3306V92.092ZM23.2807 86.4678H27.942V91.1333H23.2807V86.4678Z" fill="#FFFFFF"></path>
<path d="M27.0175 87.4351H24.231V90.1875H27.0175V87.4351Z" fill="#0069C7"></path>
<path d="M33.6727 70.3025H33.6983V71.2015V72.0963V73.1401H34.5973V72.0963V71.2015V70.3025H35.458H35.6327V71.3251H36.5274V70.3025V69.4077H36.3527H35.6327H35.458H34.5589H33.6727H33.6642H32.7737V70.3025H33.6642H33.6727Z" fill="#FFFFFF"></path>
<path d="M37.4223 71.325H36.5275V72.2411H35.5774V73.187H37.4223H38.3767V72.2411V69.4077V68.5172V68.5129H36.5275V69.4077H37.4223V71.325Z" fill="#FFFFFF"></path>
<path d="M33.5065 75.1214H32.7737H32.697V74.9339V74.0349V73.1401V72.2454V71.3463H31.7127V71.2015V70.3025H30.818V69.4077V68.5129H29.9189V69.4077V70.3025V71.2015H29.9232V72.0962H30.818V72.9953V73.2509H29.9232V74.1158V74.1457V75.0745H30.818V74.2096H31.7127V74.9339V75.8287V76.0673V76.7234V76.962H32.697V76.7234V76.0673V76.0161H32.7737H33.5065H33.6642V75.1214H33.5065Z" fill="#FFFFFF"></path>
<path d="M34.5591 75.1214H34.5932V74.2267H34.5591H33.6984H33.6643V75.1214H33.6984H34.5591Z" fill="#FFFFFF"></path>
<path d="M30.8181 77.0601H29.9233V77.9548H30.8181V77.0601Z" fill="#FFFFFF"></path>
<path d="M28.8793 78.8539V77.9549H28.0229V77.0005H28.8963V76.1014H26.0459V77.0005H27.0429V77.9549V78.8539V79.8765H28.0229V78.8539H28.8793Z" fill="#FFFFFF"></path>
<path d="M24.1841 77.908H23.2808V77.0005H24.1841V76.1014H22.335V76.9877V77.908V77.9208V78.807H23.2553V80.7883H24.2225V78.807H26.0461V77.9293V77.0005H24.1841V77.908Z" fill="#FFFFFF"></path>
<path d="M23.2553 80.7882H22.3264V81.7171H23.2553V80.7882Z" fill="#FFFFFF"></path>
<path d="M24.1969 83.6387H22.3264V84.5675H24.1969V83.6387Z" fill="#FFFFFF"></path>
<path d="M28.9221 83.6558H27.9719V84.5676H28.9221V83.6558Z" fill="#FFFFFF"></path>
<path d="M27.0046 82.6928V80.8351H25.1853V81.7171H24.1968V83.6387H25.1725V82.6757L26.0886 82.6715V83.6557H27.9718V82.6928H27.0046Z" fill="#FFFFFF"></path>
<path d="M36.4424 74.2267H35.5476V75.1214H36.4424V74.2267Z" fill="#FFFFFF"></path>
<path d="M38.3767 74.2053H37.4819V75.1001H38.3767V74.2053Z" fill="#FFFFFF"></path>
<path d="M30.8393 90.3408H29.8721V92.1303H30.8393V90.3408Z" fill="#FFFFFF"></path>
<path d="M33.7025 87.452H32.7354V88.432H33.7025V87.452Z" fill="#FFFFFF"></path>
<path d="M34.6315 86.4934H33.7026V87.4521H34.6315V86.4934Z" fill="#FFFFFF"></path>
<path d="M29.9189 86.5232V87.452V87.6267V88.4107H31.7852V87.452H30.8435V86.5232H29.9189Z" fill="#FFFFFF"></path>
<path d="M32.731 85.5347H31.7852V87.452H32.731V85.5347Z" fill="#FFFFFF"></path>
<path d="M36.5103 88.4363V87.4521V86.4934H35.5815V87.4521H34.6313V88.4363H36.5103Z" fill="#FFFFFF"></path>
<path d="M44.9978 77.9549V77.0005H45.9735V76.1014H42.1388V77.0005H44.0988V77.9549H43.2083V77.0005H41.2568V78.9178H43.204V79.8935H42.2283V80.7925H43.204H43.2083H44.0988V81.7597H44.9978V80.7499H45.9735V79.8509H44.9978V78.8624H44.103V77.9549H44.9978Z" fill="#FFFFFF"></path>
<path d="M41.2568 76.1014H40.3621V76.9962H41.2568V76.1014Z" fill="#FFFFFF"></path>
<path d="M29.8679 83.6558V84.5761V84.623V85.5433H31.7853V84.5761H30.8564V83.6558H29.8679Z" fill="#FFFFFF"></path>
<path d="M44.38 87.1155H41.0098V90.4857H44.38V87.1155Z" fill="#0069C7"></path>
<path d="M39.4036 92.1347H45.9694V85.5774H39.4036V92.1347ZM40.3537 86.4935H45.0107V91.1803H40.3537V86.4935Z" fill="#FFFFFF"></path>
<path d="M44.0902 87.4777H41.3037V90.2301H44.0902V87.4777Z" fill="#0069C7"></path>
<path d="M38.4363 84.6399H44.1159V83.6046H45.0064V82.6587H44.0989V81.7639H42.2327V80.7967H41.2527V81.7639H40.2983V83.5918H39.3481V80.7967H40.2727V78.9305H39.3226V79.821H38.4023V80.7456H36.502V81.7085H34.5974V80.7413H36.502V79.7486H37.516V77.9718H39.3226V76.9876H37.516V76.1354H36.4764V76.9876H35.5476V75.1384H34.5974V76.0332H33.66V76.9322H34.6485V77.9718H35.5433V79.8593H34.5974V78.9646H33.6984V79.8593H32.8079V80.7584H33.7026V81.7213H32.8079V80.7413H30.8394V79.8892H31.7683V78.8538H32.6971V77.9718H30.8394V78.8708H29.9106V79.8977H28.0231V80.7924H28.8752V81.7213H27.9719V82.7055H28.9221V83.6727H29.868V81.7213H30.8224V82.6587H31.7683V83.6259H33.66V82.6587H34.5633V83.6259H33.66V84.593H34.5633V85.475H36.4721V84.5121H35.62V82.6587H37.4777V81.6915H38.4193V83.5747H37.4947V88.4235H36.5105V89.3353H34.6315V88.4235H33.7026V89.3353H31.8194V90.328H32.7355V91.2143H31.7853V92.1218H32.7355V91.2185H33.7026V92.1218H35.6029V90.328H36.5105V92.1218H37.4947V88.4235H38.4534L38.4363 84.6399ZM42.2327 82.6587H43.1189V83.5918H42.2327V82.6587ZM34.6315 91.227H33.7026V90.328H34.6315V91.227Z" fill="#FFFFFF"></path>
<path d="M43.2339 82.4073H41.7554V83.8858H43.2339V82.4073Z" fill="#D21905"></path>
</g>
<defs>
<clipPath id="clip0_5366_193019">
<rect width="119.996" height="120" fill="white"></rect>
</clipPath>
</defs>
</svg>